<?xml version="1.0" standalone="no"?><!-- Generator: Gravit.io --><svg xmlns="http://www.w3.org/2000/svg" xmlns:xlink="http://www.w3.org/1999/xlink" style="isolation:isolate" viewBox="0 0 156 122" width="156" height="122"><defs><clipPath id="_clipPath_dyI2uSHn4SefnApq1QUoQyvPmKZIINnD"><rect width="156" height="122"/></clipPath></defs><g clip-path="url(#_clipPath_dyI2uSHn4SefnApq1QUoQyvPmKZIINnD)"><g><g><g><g><g><g><g><g><g><path d=" M 65.016 38.16 L 65.016 38.16 C 65.836 37.209 65.737 35.767 64.787 34.914 L 60.558 31.308 C 59.607 30.489 58.165 30.587 57.312 31.538 L 57.312 31.538 C 56.493 32.488 56.591 33.931 57.542 34.783 L 61.771 38.422 C 62.754 39.242 64.196 39.143 65.016 38.16 Z " fill="rgb(252,250,247)"/><path d=" M 72.589 33.701 L 72.589 33.701 C 73.408 32.751 73.31 31.308 72.359 30.456 L 68.13 26.817 C 67.18 25.997 65.737 26.096 64.885 27.047 L 64.885 27.047 C 64.065 27.997 64.164 29.44 65.114 30.292 L 69.343 33.931 C 70.327 34.75 71.769 34.652 72.589 33.701 Z " fill="rgb(252,250,247)"/><path d=" M 51.116 69.172 L 51.116 69.172 C 50.952 70.418 49.805 71.303 48.559 71.139 L 43.052 70.418 C 41.806 70.254 40.921 69.106 41.085 67.861 L 41.085 67.861 C 41.249 66.615 42.396 65.73 43.642 65.894 L 49.149 66.615 C 50.395 66.779 51.28 67.926 51.116 69.172 Z " fill="rgb(252,250,247)"/><path d=" M 52.821 77.794 L 52.821 77.794 C 52.657 79.039 51.51 79.924 50.264 79.761 L 44.757 79.039 C 43.511 78.875 42.626 77.728 42.79 76.482 L 42.79 76.482 C 42.954 75.237 44.101 74.351 45.347 74.515 L 50.854 75.237 C 52.1 75.401 52.985 76.548 52.821 77.794 Z " fill="rgb(252,250,247)"/></g><g><g><path d=" M 67.639 53.928 L 85.013 28.227 C 85.931 26.85 85.571 24.981 84.194 24.063 L 84.194 24.063 C 83.276 23.44 82.096 23.375 81.112 23.899 L 48.625 41.11 L 67.639 53.928 Z " fill="rgb(252,250,247)"/><path d=" M 48.625 41.077 L 81.112 23.867 C 82.096 23.342 83.276 23.408 84.194 24.031 C 84.981 24.555 85.407 25.375 85.472 26.227 L 53.411 43.208 L 68.13 53.174 L 67.639 53.928 L 48.625 41.077 Z " fill="rgb(211,76,45)"/></g><g><path d=" M 64.623 60.648 L 56.984 90.743 C 56.591 92.349 54.952 93.332 53.346 92.906 L 53.346 92.906 C 52.264 92.644 51.444 91.792 51.182 90.71 L 42.396 55.01 L 64.623 60.648 Z " fill="rgb(252,250,247)"/><path d=" M 55.837 92.415 C 55.149 92.939 54.231 93.136 53.346 92.906 C 52.264 92.644 51.444 91.792 51.182 90.71 L 42.396 55.01 L 64.655 60.648 L 64.426 61.534 L 47.182 57.141 L 55.837 92.415 Z " fill="rgb(211,76,45)"/></g></g><path d=" M 22.76 41.897 L 22.76 41.897 C 22.104 40.815 21.907 39.602 22.038 38.455 C 22.071 38.16 22.137 37.865 22.202 37.602 C 22.366 37.373 22.53 37.111 22.727 36.914 C 23.481 36.062 24.53 35.406 25.776 35.177 L 25.776 35.177 C 31.971 33.931 38.397 34.652 44.134 37.242 L 99.405 65.205 L 99.405 65.205 C 103.732 69.696 100.388 77.171 94.16 76.941 L 94.16 76.941 L 36.528 54.256 C 30.758 51.666 25.972 47.339 22.76 41.897 Z " fill="rgb(219,219,219)"/><path d=" M 22.76 41.897 L 22.76 41.897 C 22.104 40.815 21.907 39.602 22.038 38.455 C 22.071 38.16 22.137 37.865 22.202 37.602 C 22.366 37.373 22.53 37.111 22.727 36.914 C 23.481 36.062 24.53 35.406 25.776 35.177 L 25.776 35.177 C 31.971 33.931 38.397 34.652 44.134 37.242 L 99.405 65.205 L 99.405 65.205 C 103.732 69.696 100.388 77.171 94.16 76.941 L 94.16 76.941 L 36.528 54.256 C 30.758 51.666 25.972 47.339 22.76 41.897 Z " fill="rgb(252,250,247)"/><path d=" M 105.928 75.171 L 105.961 75.105 C 106.42 74.056 105.961 72.843 104.912 72.385 L 91.701 66.451 C 90.652 65.992 89.439 66.451 88.98 67.5 L 88.947 67.566 C 88.488 68.615 88.947 69.828 89.996 70.286 L 103.208 76.22 C 104.257 76.679 105.469 76.187 105.928 75.171 Z " fill="rgb(211,76,45)"/><path d=" M 35.873 36.717 L 37.708 39.668 C 34.955 41.372 33.512 44.585 34.069 47.765 L 30.627 48.355 C 29.841 43.766 31.873 39.176 35.873 36.717 Z " fill="rgb(107,113,114)"/><g><g><path d=" M 100.913 71.532 L 113.731 57.501 C 114.616 56.518 114.485 55.01 113.436 54.125 L 113.436 54.125 C 112.682 53.469 111.6 53.305 110.715 53.699 L 90.258 62.484 L 100.913 71.532 Z " fill="rgb(252,250,247)"/><path d=" M 99.896 73.761 L 97.962 92.644 C 97.831 93.955 96.618 94.84 95.241 94.677 L 95.241 94.677 C 94.258 94.545 93.406 93.857 93.111 92.939 L 86.062 71.827 L 99.896 73.761 Z " fill="rgb(252,250,247)"/></g><path d=" M 113.337 54.092 C 113.37 54.125 113.403 54.125 113.403 54.158 C 114.452 55.043 114.583 56.551 113.698 57.534 L 100.88 71.565 L 98.847 69.86 L 113.337 54.092 Z " fill="rgb(211,76,45)"/><path d=" M 99.896 73.761 L 97.962 92.644 C 97.831 93.955 96.618 94.84 95.241 94.677 C 95.209 94.677 95.176 94.677 95.143 94.644 L 97.274 73.368 L 99.896 73.761 Z " fill="rgb(211,76,45)"/></g></g></g></g><g opacity="0.1"><path d=" M 22.202 37.602 C 22.137 37.897 22.071 38.16 22.038 38.455 C 21.907 39.602 22.104 40.782 22.76 41.897 L 22.76 41.897 C 25.939 47.339 30.758 51.666 36.528 54.256 L 42.79 56.715 L 45.084 66.09 L 43.642 65.894 C 42.396 65.73 41.249 66.615 41.085 67.861 C 40.921 69.106 41.806 70.254 43.052 70.418 L 46.297 70.844 L 47.248 74.745 L 45.347 74.483 C 44.101 74.319 42.954 75.204 42.79 76.45 C 42.626 77.695 43.511 78.843 44.757 79.007 L 48.428 79.498 L 51.182 90.677 C 51.313 91.202 51.575 91.693 51.969 92.087 C 52.362 92.48 52.821 92.742 53.378 92.874 C 53.608 92.939 53.804 92.939 54.034 92.972 C 54.067 92.972 54.132 92.972 54.165 92.972 C 54.329 92.972 54.526 92.939 54.69 92.906 C 54.722 92.906 54.755 92.906 54.788 92.874 C 54.985 92.841 55.149 92.775 55.345 92.71 C 55.345 92.71 55.345 92.71 55.378 92.71 C 56.198 92.349 56.82 91.628 57.083 90.71 L 63.639 64.845 L 86.849 73.958 L 93.176 92.906 C 93.471 93.791 94.258 94.447 95.209 94.611 L 95.209 94.611 C 95.241 94.611 95.274 94.611 95.307 94.644 C 96.323 94.775 97.274 94.316 97.733 93.529 C 97.897 93.267 97.995 92.972 98.028 92.644 L 99.896 74.647 L 103.306 76.155 C 104.322 76.613 105.502 76.187 105.994 75.171 L 22.268 37.537 C 22.235 37.57 22.235 37.57 22.202 37.602 Z " fill="rgb(7,7,7)"/></g></g></g><path d=" M 165.691 245.017 C 165.691 245.574 165.691 246 165.691 246 C 165.691 246 165.691 245.574 165.691 245.017 C 165.691 244.459 165.691 244.033 165.691 244.033 C 165.691 244.033 165.691 244.492 165.691 245.017 Z " fill="rgb(252,250,247)"/></g></g></g></g></svg>