<svg height="402.77333pt" viewBox="0 0 402.77333 402.77333" width="402.77333pt" xmlns="http://www.w3.org/2000/svg"><path d="m395.945312 201.386719c0 107.453125-87.105468 194.558593-194.558593 194.558593s-194.558594-87.105468-194.558594-194.558593 87.105469-194.558594 194.558594-194.558594 194.558593 87.105469 194.558593 194.558594zm0 0" fill="#5c9eff"/><path d="m201.386719 402.773438c-111.046875 0-201.386719-90.339844-201.386719-201.386719s90.339844-201.386719 201.386719-201.386719 201.386719 90.339844 201.386719 201.386719-90.339844 201.386719-201.386719 201.386719zm0-389.121094c-103.511719 0-187.734375 84.21875-187.734375 187.734375s84.222656 187.734375 187.734375 187.734375 187.734375-84.21875 187.734375-187.734375-84.222656-187.734375-187.734375-187.734375zm0 0" fill="#0e65e5"/><path d="m201.386719 368.640625c-102.859375 0-187.011719-79.832031-194.03125-180.90625-.3125 4.515625-.527344 9.058594-.527344 13.652344 0 107.453125 87.105469 194.558593 194.558594 194.558593s194.558593-87.105468 194.558593-194.558593c0-4.59375-.214843-9.136719-.527343-13.652344-7.019531 101.074219-91.175781 180.90625-194.03125 180.90625zm0 0" fill="#0e65e5"/><path d="m201.386719 402.773438c-111.046875 0-201.386719-90.339844-201.386719-201.386719 0-4.285157.179688-8.90625.554688-14.136719.25-3.570312 3.222656-6.34375 6.804687-6.34375h.007813c3.578124.003906 6.550781 2.777344 6.804687 6.351562 6.789063 97.882813 89.027344 174.554688 187.214844 174.554688s180.425781-76.671875 187.214843-174.554688c.253907-3.574218 3.226563-6.347656 6.804688-6.351562h.007812c3.582032 0 6.554688 2.773438 6.804688 6.34375.375 5.230469.554688 9.851562.554688 14.136719 0 111.046875-90.339844 201.386719-201.386719 201.386719zm-168.5625-118.773438c30.617187 62.210938 94.671875 105.121094 168.5625 105.121094s137.945312-42.910156 168.5625-105.121094c-36.15625 55.164062-98.582031 91.464844-168.5625 91.464844s-132.40625-36.300782-168.5625-91.464844zm0 0" fill="#0e65e5"/><g fill="#fff"><path d="m109.808594 68.238281c-2.226563 0-4.410156-1.082031-5.714844-3.082031-2.066406-3.152344-1.1875-7.386719 1.964844-9.453125 28.335937-18.578125 61.300781-28.394531 95.328125-28.394531 3.773437 0 6.828125 3.054687 6.828125 6.824218 0 3.769532-3.054688 6.828126-6.828125 6.828126-31.363281 0-61.734375 9.042968-87.84375 26.164062-1.15625.757812-2.449219 1.113281-3.734375 1.113281zm0 0"/><path d="m348.160156 307.199219c-3.773437 0-6.828125-3.058594-6.828125-6.824219v-27.308594c0-3.769531 3.054688-6.828125 6.828125-6.828125 3.773438 0 6.828125 3.058594 6.828125 6.828125v27.308594c0 3.765625-3.054687 6.824219-6.828125 6.824219zm0 0"/><path d="m361.8125 293.546875h-27.304688c-3.773437 0-6.828124-3.058594-6.828124-6.828125 0-3.765625 3.054687-6.824219 6.828124-6.824219h27.304688c3.773438 0 6.828125 3.058594 6.828125 6.824219 0 3.769531-3.054687 6.828125-6.828125 6.828125zm0 0"/><path d="m27.308594 245.761719c-3.773438 0-6.828125-3.058594-6.828125-6.828125v-27.308594c0-3.765625 3.054687-6.824219 6.828125-6.824219 3.769531 0 6.824218 3.058594 6.824218 6.824219v27.308594c0 3.769531-3.054687 6.828125-6.824218 6.828125zm0 0"/><path d="m40.960938 232.105469h-27.308594c-3.769532 0-6.824219-3.058594-6.824219-6.824219 0-3.769531 3.054687-6.828125 6.824219-6.828125h27.308594c3.769531 0 6.824218 3.058594 6.824218 6.828125 0 3.765625-3.054687 6.824219-6.824218 6.824219zm0 0"/><path d="m220.691406 201.386719 82.507813-82.507813c5.332031-5.332031 5.332031-13.976562 0-19.304687-5.332031-5.332031-13.972657-5.332031-19.304688 0l-82.507812 82.507812-82.507813-82.507812c-5.332031-5.332031-13.976562-5.332031-19.304687 0-5.332031 5.332031-5.332031 13.972656 0 19.304687l82.507812 82.507813-82.507812 82.507812c-5.332031 5.332031-5.332031 13.976563 0 19.304688 2.664062 2.667969 6.160156 4 9.652343 4 3.492188 0 6.988282-1.332031 9.652344-4l82.507813-82.507813 82.507812 82.507813c5.332031 5.332031 13.976563 5.332031 19.304688 0 2.667969-2.664063 4-6.160157 4-9.652344s-1.332031-6.988281-4-9.652344zm0 0"/></g><path d="m109.226562 314.027344c-5.46875 0-10.613281-2.128906-14.480468-6-3.867188-3.867188-6-9.007813-6-14.480469s2.132812-10.613281 6-14.484375l77.683594-77.675781-77.683594-77.679688c-7.984375-7.984375-7.984375-20.980469 0-28.960937 7.988281-7.984375 20.976562-7.984375 28.960937 0l77.679688 77.683594 77.679687-77.683594c7.988282-7.984375 20.976563-7.984375 28.960938 0 3.867187 3.867187 6 9.007812 6 14.480468 0 5.472657-2.132813 10.613282-6 14.484376l-77.683594 77.675781 77.683594 77.679687c3.867187 3.867188 6 9.011719 6 14.480469s-2.132813 10.613281-6 14.480469c-7.988282 7.984375-20.976563 7.984375-28.960938 0l-77.679687-77.683594-77.679688 77.683594c-3.867187 3.871094-9.011719 6-14.480469 6zm0-211.625c-1.746093 0-3.492187.667968-4.828124 1.996094-2.65625 2.660156-2.65625 6.996093 0 9.65625l87.335937 87.332031-87.335937 87.332031c-1.292969 1.292969-2 3.003906-2 4.828125s.707031 3.535156 2 4.824219c2.589843 2.585937 7.066406 2.582031 9.65625.003906l87.332031-87.335938 87.332031 87.335938c2.667969 2.65625 6.988281 2.65625 9.65625 0 1.285156-1.292969 2-3.003906 2-4.828125s-.714844-3.535156-2-4.828125l-87.335938-87.332031 87.335938-87.332031c1.292969-1.292969 2-3.003907 2-4.828126 0-1.824218-.707031-3.535156-2-4.824218-2.667969-2.664063-6.988281-2.660156-9.65625-.003906l-87.332031 87.335937-87.332031-87.335937c-1.335938-1.328126-3.082032-1.996094-4.828126-1.996094zm0 0" fill="#0e65e5"/></svg>